<svg xmlns="http://www.w3.org/2000/svg" viewBox="0 0 597 655.74"><defs><style>.cls-1{fill:#24272b;}.cls-2{fill:#7fb285;}.cls-3{fill:none;}</style></defs><title>dome</title><g id="Layer_2" data-name="Layer 2"><g id="res"><polygon class="cls-1" points="597 648.26 0 655.74 0 405.79 77.59 232 98.26 304 112.59 279 118.92 292.33 144.92 299.67 164.59 226 179.26 303.33 178.26 310.67 178.26 384.33 365.59 433.33 318.92 355 270.59 340.67 269.26 323.67 274.26 315.33 274.26 269 285.92 226 297.26 267.33 298.26 305.33 302.59 303.67 357.59 288 356.26 241 368.26 197 381.59 237.33 383.59 286.33 418.26 303.33 424.26 303.33 422.59 269.67 431.26 231.33 444.26 272 453.92 376 416.59 496 510.59 486.67 506.59 418 511.92 406.67 511.59 392.33 510.26 375 517.59 330 532.92 372.67 532.92 386.67 566.59 380.33 575.92 402.33 582.92 354 597 392.49 597 648.26"/><polygon class="cls-2" points="118.92 292.33 140.92 346.67 144.92 299.67 118.92 292.33"/><polygon class="cls-2" points="365.59 433.33 178.26 384.33 178.26 310.67 270.59 340.67 318.92 355 365.59 433.33"/><polygon class="cls-2" points="418.26 303.33 383.59 286.33 381.59 237.33 368.26 197 356.26 241 357.59 288 302.59 303.67 352.59 0 418.26 303.33"/><polygon class="cls-2" points="506.59 418 510.59 486.67 416.59 496 453.92 376 496.26 393.33 511.59 392.33 511.92 406.67 506.59 418"/><polygon class="cls-2" points="532.92 386.67 541.59 436 566.59 380.33 532.92 386.67"/><path class="cls-2" d="M371.09,477.5s48.08,80.25,47.16,81-156.66-14-156.66-14l-102.5,6,70-91.5Z"/><line class="cls-3" x1="597" y1="648.26" x2="597" y2="392.49"/></g></g></svg>